<?xml version="1.0" standalone="no"?>
<!DOCTYPE svg PUBLIC "-//W3C//DTD SVG 20010904//EN"
 "http://www.w3.org/TR/2001/REC-SVG-20010904/DTD/svg10.dtd">
<svg version="1.0" xmlns="http://www.w3.org/2000/svg"
 width="256.000000pt" height="256.000000pt" viewBox="0 0 256.000000 256.000000"
 preserveAspectRatio="xMidYMid meet">

<g transform="translate(0.000000,256.000000) scale(0.100000,-0.100000)"
fill="#000000" stroke="none">
<path d="M2065 1870 c-3 -6 -4 -18 -1 -28 3 -10 -2 -78 -13 -152 -10 -74 -16
-141 -14 -147 6 -16 49 -17 58 -3 11 18 46 293 40 318 -4 16 -13 22 -35 22
-16 0 -32 -5 -35 -10z"/>
<path d="M1835 1810 c-22 -4 -70 -11 -107 -15 -56 -5 -68 -10 -68 -25 0 -37
25 -44 113 -33 45 6 84 9 87 7 2 -3 -10 -34 -29 -70 -38 -73 -122 -156 -176
-174 -37 -12 -46 -34 -19 -44 48 -19 166 54 224 139 48 70 82 150 78 187 -3
29 -7 33 -33 35 -16 1 -48 -2 -70 -7z"/>
<path d="M1469 1808 c0 -2 -2 -39 -3 -83 -1 -44 -5 -85 -9 -92 -4 -6 -32 -15
-63 -19 -58 -7 -76 -23 -54 -49 10 -12 24 -14 63 -9 49 7 50 7 44 -17 -4 -13
-10 -59 -13 -101 -7 -74 -6 -78 13 -78 11 0 26 6 32 13 14 18 64 383 57 413
-5 19 -13 24 -36 24 -17 0 -30 -1 -31 -2z"/>
<path d="M878 1774 c-4 -3 -4 -27 -2 -53 4 -29 -10 -141 -36 -306 -51 -326
-50 -305 -22 -305 37 0 50 32 72 180 12 80 24 148 26 151 2 4 21 10 41 14 48
9 63 21 63 52 0 23 -2 24 -46 17 l-47 -7 9 69 c5 38 9 96 9 129 0 60 0 60 -30
63 -17 2 -34 0 -37 -4z"/>
<path d="M1255 1730 c-27 -5 -71 -9 -97 -9 -48 -1 -48 -1 -48 -36 0 -19 -7
-80 -15 -136 -20 -133 -15 -144 64 -136 72 8 181 46 195 69 18 29 -4 39 -50
23 -23 -8 -65 -17 -94 -21 l-53 -7 7 67 c11 109 14 113 93 121 89 9 101 13
113 36 21 39 -5 46 -115 29z"/>
<path d="M610 1663 c-58 -12 -126 -22 -152 -22 -40 -1 -48 -4 -48 -20 0 -28
27 -51 58 -51 15 0 58 7 97 15 107 23 109 23 101 -27 -4 -23 -24 -79 -45 -124
-49 -104 -116 -175 -188 -200 -54 -19 -63 -30 -41 -52 53 -53 222 74 291 218
43 89 81 223 73 255 -8 32 -27 33 -146 8z"/>
<path d="M1863 1472 c-121 -22 -143 -28 -143 -43 0 -35 30 -38 155 -13 66 12
123 23 128 24 13 0 7 -61 -7 -66 -8 -3 -76 -13 -153 -23 l-138 -17 -3 -84 c-2
-71 0 -87 14 -97 29 -21 81 -15 212 23 121 35 168 39 230 19 28 -9 30 14 3 39
-36 33 -116 32 -250 -3 -67 -17 -126 -29 -132 -26 -5 4 -9 22 -9 40 0 40 -7
37 148 59 122 17 147 30 155 83 13 74 9 100 -15 107 -30 8 -31 8 -195 -22z"/>
<path d="M1149 1354 c-14 -17 -16 -29 -21 -111 -2 -33 2 -57 10 -65 17 -17 93
-15 210 7 99 18 157 48 157 80 0 24 -13 23 -110 -3 -38 -11 -99 -23 -134 -27
l-64 -7 6 59 c4 40 2 64 -5 71 -16 16 -33 15 -49 -4z"/>
<path d="M1360 1039 c-36 -5 -137 -23 -225 -40 -214 -41 -378 -49 -458 -22
-68 24 -71 9 -5 -24 108 -54 234 -52 560 9 148 27 196 32 333 32 142 0 166 -2
215 -22 30 -12 58 -18 63 -13 13 13 -39 49 -97 67 -62 19 -293 27 -386 13z"/>
<path d="M1947 893 c-4 -3 -7 -19 -7 -35 0 -32 -7 -34 -38 -12 -12 8 -28 14
-35 11 -6 -2 7 -17 30 -33 23 -16 44 -39 47 -51 4 -13 11 -23 16 -23 12 0 13
30 1 48 -4 7 -5 33 -1 57 6 42 2 54 -13 38z"/>
<path d="M536 848 c-42 -60 1 -134 63 -108 70 28 62 122 -11 128 -28 2 -40 -2
-52 -20z m83 -17 c10 -19 0 -51 -22 -70 -23 -18 -57 3 -57 34 0 52 57 78 79
36z"/>
<path d="M683 765 c-17 -51 -18 -65 -8 -65 8 0 17 15 21 35 3 19 10 35 14 35
5 0 16 -23 25 -51 9 -27 22 -48 28 -46 16 5 47 127 32 127 -7 0 -16 -16 -19
-35 -9 -47 -20 -44 -37 12 -8 25 -19 48 -25 50 -5 2 -19 -26 -31 -62z"/>
<path d="M1780 760 c0 -40 4 -70 10 -70 6 0 10 6 10 14 0 19 54 38 68 24 6 -6
15 -9 21 -7 13 5 -77 109 -95 109 -11 0 -14 -16 -14 -70z m50 -10 c-25 -16
-30 -12 -30 22 l0 32 23 -22 c19 -19 20 -24 7 -32z"/>
<path d="M1708 804 c-5 -4 -8 -27 -8 -51 0 -52 -9 -54 -34 -8 -25 45 -40 40
-46 -16 l-5 -44 -23 43 c-19 35 -42 56 -42 37 0 -15 61 -125 69 -125 5 0 13
24 18 53 l9 52 24 -42 c38 -69 53 -55 48 46 -2 35 -6 59 -10 55z"/>
<path d="M910 776 c0 -2 7 -23 15 -47 9 -24 13 -54 10 -66 -4 -16 -1 -23 10
-23 9 0 15 9 15 23 0 12 14 39 31 60 22 27 26 37 15 37 -8 0 -20 -9 -26 -20
-15 -28 -29 -25 -41 10 -6 17 -15 30 -20 30 -5 0 -9 -2 -9 -4z"/>
<path d="M1074 750 c-50 -20 -51 -111 -2 -129 71 -26 121 71 62 118 -29 23
-30 23 -60 11z m51 -30 c21 -23 13 -65 -17 -83 -38 -25 -67 52 -32 87 20 21
27 20 49 -4z"/>
<path d="M1200 699 c0 -28 5 -59 10 -70 11 -20 54 -26 79 -10 16 10 27 93 15
118 -6 13 -10 3 -14 -36 -9 -96 -70 -96 -70 0 0 27 -4 49 -10 49 -5 0 -10 -23
-10 -51z"/>
<path d="M1350 727 c0 -47 13 -117 21 -117 5 0 9 14 9 30 0 37 14 38 36 5 9
-14 23 -25 30 -25 12 0 12 4 -1 24 -14 20 -14 28 -3 45 20 32 0 55 -51 59 -38
3 -41 1 -41 -21z m76 -9 c7 -10 -20 -38 -38 -38 -4 0 -8 11 -8 25 0 18 5 25
19 25 11 0 23 -5 27 -12z"/>
</g>
</svg>
